<?xml version="1.0" encoding="UTF-8" standalone="no"?>
<svg
   xmlns:dc="http://purl.org/dc/elements/1.1/"
   xmlns:cc="http://creativecommons.org/ns#"
   xmlns:rdf="http://www.w3.org/1999/02/22-rdf-syntax-ns#"
   xmlns:svg="http://www.w3.org/2000/svg"
   xmlns="http://www.w3.org/2000/svg"
   xmlns:sodipodi="http://sodipodi.sourceforge.net/DTD/sodipodi-0.dtd"
   xmlns:inkscape="http://www.inkscape.org/namespaces/inkscape"
   width="1440"
   height="1024"
   viewBox="0 0 1440 1024"
   fill="none"
   version="1.1"
   id="svg20"
   sodipodi:docname="bg.svg"
   inkscape:version="0.92.5 (2060ec1f9f, 2020-04-08)">
  <metadata
     id="metadata26">
    <rdf:RDF>
      <cc:Work
         rdf:about="">
        <dc:format>image/svg+xml</dc:format>
        <dc:type
           rdf:resource="http://purl.org/dc/dcmitype/StillImage" />
      </cc:Work>
    </rdf:RDF>
  </metadata>
  <defs
     id="defs24" />
  <sodipodi:namedview
     pagecolor="#ffffff"
     bordercolor="#666666"
     borderopacity="1"
     objecttolerance="10"
     gridtolerance="10"
     guidetolerance="10"
     inkscape:pageopacity="0"
     inkscape:pageshadow="2"
     inkscape:window-width="1920"
     inkscape:window-height="1004"
     id="namedview22"
     showgrid="false"
     inkscape:zoom="0.17083333"
     inkscape:cx="465.36583"
     inkscape:cy="277.85364"
     inkscape:window-x="0"
     inkscape:window-y="0"
     inkscape:window-maximized="1"
     inkscape:current-layer="svg20" />
  <path
     d="m 1404.6521,114.99341 c 70.0428,12.25377 143.4667,20.95415 196.4338,65.80713 50.196,42.51492 65.5677,107.71576 81.4147,169.50323 14.6543,57.1042 11.3719,113.28645 6.1434,171.82559 -7.0043,78.43456 10.493,165.51367 -41.7477,226.97919 -57.1284,67.22676 -150.9554,112.42366 -242.2442,107.17991 -89.827,-5.16039 -161.1972,-71.11191 -221.6789,-133.82939 -51.2192,-53.11509 -64.4824,-124.35253 -91.8467,-191.29858 -29.3848,-71.88674 -83.9007,-137.93597 -73.9826,-214.39209 10.8956,-83.99043 51.0774,-174.46649 129.7398,-215.42596 77.1906,-40.194005 171.0354,-1.521925 257.7684,13.65097 z"
     id="path2"
     inkscape:connector-curvature="0"
     style="clip-rule:evenodd;fill:#ffdbcf;fill-opacity:0.88020803;fill-rule:evenodd;stroke-width:0.89683533" />
  <path
     d="m 468.35414,102.43775 c 70.04553,12.25377 143.47035,20.9541 196.43208,65.80709 50.20214,42.51493 65.56943,107.71576 81.41921,169.50324 14.64978,57.10419 11.36825,113.28645 6.1424,171.82559 -7.0025,78.43452 10.49299,165.51364 -41.74501,226.97916 C 653.46904,803.77963 559.6484,848.97654 468.35414,843.73272 378.53302,838.57235 307.15646,772.62087 246.67679,709.90339 195.45789,656.78831 182.1946,585.55088 154.83035,518.6048 125.44555,446.71805 70.929613,380.66883 80.847714,304.21271 91.743366,220.22228 131.92518,129.7462 210.58751,88.786748 287.77966,48.592738 381.62263,87.264819 468.35414,102.43775 Z"
     id="path4"
     inkscape:connector-curvature="0"
     style="clip-rule:evenodd;fill:#fac6e5;fill-opacity:0.4;fill-rule:evenodd;stroke-width:0.89683533" />
  <path
     d="m 1367.1448,102.43775 c -70.0456,12.25377 -143.4704,20.9541 -196.4321,65.80709 -50.2021,42.51493 -65.5694,107.71576 -81.4192,169.50324 -14.6498,57.10419 -11.3683,113.28645 -6.1424,171.82559 7.0025,78.43452 -10.493,165.51364 41.745,226.97916 57.1337,67.2268 150.9544,112.42371 242.2487,107.17989 89.8211,-5.16037 161.1977,-71.11185 221.6773,-133.82933 51.2189,-53.11508 64.4822,-124.35251 91.8464,-191.29859 29.3848,-71.88675 83.9007,-137.93597 73.9827,-214.39209 -10.8957,-83.99043 -51.0776,-174.46651 -129.7398,-215.425962 -77.1922,-40.19401 -171.0351,-1.521929 -257.7666,13.651002 z"
     id="path6"
     inkscape:connector-curvature="0"
     style="clip-rule:evenodd;fill:#fac6e5;fill-opacity:0.4;fill-rule:evenodd;stroke-width:0.89683533" />
  <path
     d="m 545.48199,1277.3437 c 70.04553,-12.2598 143.47034,-20.9591 196.43204,-65.8098 50.20219,-42.519 65.56944,-107.7189 81.41921,-169.5019 14.64983,-57.10508 11.3683,-113.28733 6.14245,-171.8265 -7.0025,-78.4345 10.49294,-165.51362 -41.74501,-226.97913 -57.13378,-67.2268 -150.95445,-112.42371 -242.24869,-107.17991 -89.82075,5.16039 -161.19764,71.11187 -221.67735,133.82933 -51.21891,53.11509 -64.48201,124.35253 -91.84688,191.29862 -29.38437,71.88674 -83.90031,137.93598 -73.98221,214.39029 10.89567,83.9886 51.07747,174.4703 129.7399,215.4288 77.19204,40.1962 171.03538,1.5246 257.76654,-13.6498 z"
     id="path8"
     inkscape:connector-curvature="0"
     style="clip-rule:evenodd;fill:#ffddf1;fill-opacity:0.88020803;fill-rule:evenodd;stroke-width:0.89683533" />
  <path
     d="m 1078.3188,380.71725 c 68.451,-9.17732 142.6255,-17.99321 201.6283,15.96905 60.8324,35.01067 97.9166,99.55322 113.1269,165.18813 14.3314,61.88698 -12.5737,122.33999 -32.5013,182.83691 -20.2327,61.43053 -37.2456,123.91754 -83.9708,170.79874 -54.1329,54.31773 -119.2504,110.28022 -198.2831,112.41472 C 998.71211,1030.0772 923.92054,983.04893 871.59554,926.45863 825.17537,876.25381 844.66446,798.87391 811.95508,739.84513 768.0559,660.62317 620.76415,612.11605 650.35344,527.20186 679.98489,442.16662 825.20226,476.23739 914.45802,445.6876 971.55233,426.14465 1018.1815,388.77981 1078.3188,380.71725 Z"
     id="path10"
     inkscape:connector-curvature="0"
     style="clip-rule:evenodd;fill:#fac6e5;fill-opacity:0.4;fill-rule:evenodd;stroke-width:0.89683533" />
  <path
     d="m 969.80172,708.0622 c 68.45098,-9.17736 142.62368,-17.99322 201.63188,15.96901 60.8288,35.0107 97.9129,99.55322 113.1233,165.18812 14.3314,61.88703 -12.5737,122.33827 -32.5014,182.83877 -20.2326,61.4332 -37.2455,123.9157 -83.9689,170.7933 -54.1329,54.3213 -119.2522,110.2839 -198.28488,112.4183 -79.60669,2.1524 -154.39827,-44.8776 -206.72326,-101.4679 -46.42018,-50.2049 -26.93107,-127.5839 -59.64042,-186.6136 C 659.53881,987.9681 512.24706,939.46095 541.83635,854.54678 571.4678,769.51151 716.68517,803.58234 805.94093,773.03252 863.03524,753.48957 909.66442,716.12473 969.80172,708.0622 Z"
     id="path12"
     inkscape:connector-curvature="0"
     style="clip-rule:evenodd;fill:#fac6e5;fill-opacity:0.4;fill-rule:evenodd;stroke-width:0.89683533" />
  <path
     d="m 1229.3387,112.36133 c 72.3029,-1.89264 113.1986,76.33665 173.5108,113.79979 64.4197,40.00604 167.5916,43.89921 191.4205,112.85328 23.8379,68.95858 -50.5726,131.64647 -84.3742,196.83385 -28.2055,54.40382 -47.8284,112.5062 -96.5623,152.12121 -51.9178,42.20688 -115.4945,80.6542 -183.9948,75.96913 -67.0546,-4.58553 -104.4688,-73.39969 -165.4966,-99.86979 -85.06128,-36.89399 -221.83225,-3.61244 -259.11278,-84.29625 -36.04024,-78.00135 64.92819,-153.70503 116.99754,-223.27704 37.58189,-50.2165 91.05934,-81.80573 140.98694,-121.43061 55.2595,-43.85668 94.2817,-120.80994 166.6249,-122.70357 z"
     id="path14"
     inkscape:connector-curvature="0"
     style="clip-rule:evenodd;fill:#ffecf7;fill-rule:evenodd;stroke-width:0.89683533" />
  <path
     d="m 1229.3387,112.36133 c 72.3029,-1.89264 113.1986,76.33665 173.5108,113.79979 64.4197,40.00604 167.5916,43.89921 191.4205,112.85328 23.8379,68.95858 -50.5726,131.64647 -84.3742,196.83385 -28.2055,54.40382 -47.8284,112.5062 -96.5623,152.12121 -51.9178,42.20688 -115.4945,80.6542 -183.9948,75.96913 -67.0546,-4.58553 -104.4688,-73.39969 -165.4966,-99.86979 -85.06128,-36.89399 -221.83225,-3.61244 -259.11278,-84.29625 -36.04024,-78.00135 64.92819,-153.70503 116.99754,-223.27704 37.58189,-50.2165 91.05934,-81.80573 140.98694,-121.43061 55.2595,-43.85668 94.2817,-120.80994 166.6249,-122.70357 z"
     id="path16"
     inkscape:connector-curvature="0"
     style="clip-rule:evenodd;fill:#ffecf7;fill-rule:evenodd;stroke-width:0.89683533" />
  <path
     d="M 449.21399,499.79457 C 376.91112,497.90135 336.01543,576.1305 275.70325,613.59403 211.28357,653.60006 108.11163,657.49322 84.2827,726.44731 c -23.837883,68.95856 50.57255,131.64644 84.37428,196.83382 28.20548,54.40382 47.82824,112.50887 96.56226,152.12217 51.9178,42.205 115.49447,80.6524 183.99475,75.9709 67.05638,-4.5918 104.47236,-73.406 165.49304,-99.8716 85.06484,-36.8958 221.8358,-3.6142 259.11638,-84.29716 C 909.86365,889.20411 808.89523,813.50041 756.82583,743.92841 719.24395,693.71192 665.76658,662.12266 615.83704,622.4978 560.58302,578.64076 521.56171,501.68779 449.21399,499.79457 Z"
     id="path18"
     inkscape:connector-curvature="0"
     style="clip-rule:evenodd;fill:#220b0b;fill-opacity:0.15;fill-rule:evenodd;stroke-width:0.89683533" />
</svg>
