<?xml version="1.0" encoding="UTF-8" standalone="no"?>
<svg
   xmlns:dc="http://purl.org/dc/elements/1.1/"
   xmlns:cc="http://creativecommons.org/ns#"
   xmlns:rdf="http://www.w3.org/1999/02/22-rdf-syntax-ns#"
   xmlns:svg="http://www.w3.org/2000/svg"
   xmlns="http://www.w3.org/2000/svg"
   xmlns:sodipodi="http://sodipodi.sourceforge.net/DTD/sodipodi-0.dtd"
   xmlns:inkscape="http://www.inkscape.org/namespaces/inkscape"
   width="894"
   height="727"
   viewBox="0 0 894 727"
   fill="none"
   version="1.1"
   id="svg4"
   sodipodi:docname="Vector.svg"
   inkscape:version="0.92.5 (2060ec1f9f, 2020-04-08)">
  <metadata
     id="metadata10">
    <rdf:RDF>
      <cc:Work
         rdf:about="">
        <dc:format>image/svg+xml</dc:format>
        <dc:type
           rdf:resource="http://purl.org/dc/dcmitype/StillImage" />
      </cc:Work>
    </rdf:RDF>
  </metadata>
  <defs
     id="defs8" />
  <sodipodi:namedview
     pagecolor="#ffffff"
     bordercolor="#666666"
     borderopacity="1"
     objecttolerance="10"
     gridtolerance="10"
     guidetolerance="10"
     inkscape:pageopacity="0"
     inkscape:pageshadow="2"
     inkscape:window-width="1920"
     inkscape:window-height="1004"
     id="namedview6"
     showgrid="false"
     inkscape:zoom="1.1006711"
     inkscape:cx="447.90237"
     inkscape:cy="372.69321"
     inkscape:window-x="0"
     inkscape:window-y="0"
     inkscape:window-maximized="1"
     inkscape:current-layer="svg4" />
  <path
     d="M 478.05933,6.3956494 C 554.99435,4.3817965 598.50517,87.620854 662.6883,127.48312 c 68.53936,42.568 178.31838,46.71048 203.67806,120.08035 25.36255,73.37464 -53.81405,140.07704 -89.77946,209.43899 C 746.57134,514.89028 725.68909,576.7135 673.84083,618.86544 618.60015,663.77522 550.95207,704.6847 478.05933,699.6996 406.71251,694.82043 366.90235,621.59942 301.9663,593.43419 211.45777,554.1775 65.927756,589.5904 26.260522,503.73965 -12.088161,420.74313 95.346702,340.19143 150.75008,266.16407 190.7387,212.73173 247.64076,179.11953 300.76583,136.9571 359.56402,90.291851 401.08519,8.4105359 478.05933,6.3956494 Z"
     id="path2"
     inkscape:connector-curvature="0"
     style="clip-rule:evenodd;fill:#ffecf7;fill-rule:evenodd;stroke-width:0.95426828" />
</svg>
